name analog
datacolumns 19
datarows 49
range 0.217 0.241
endheader
time	ground_force_vx	ground_force_vy	ground_force_vz	ground_force_px	ground_force_py	ground_force_pz	l_ground_force_vx	l_ground_force_vy	l_ground_force_vz	l_ground_force_px	l_ground_force_py	l_ground_force_pz	ground_torque_x	ground_torque_y	ground_torque_z	l_ground_torque_x	l_ground_torque_y	l_ground_torque_z
0.217	-0.0	-0.0	-0.0	-1.1857236623764038	22.639122009277344	-508.3288269042969	-7.725558757781982	-58.461273193359375	-389.2736511230469	-0.0	-0.0	-0.0	-0.0	-0.0	-0.0	104809.9609375	32718.5703125	-8501.6787109375
0.2175	-0.0	-0.0	-0.0	-1.178569793701172	22.186113357543945	-511.6249084472656	-7.436431407928467	-57.80274200439453	-383.1187744140625	-0.0	-0.0	-0.0	-0.0	-0.0	-0.0	104029.890625	32638.171875	-8371.67578125
0.218	-0.0	-0.0	-0.0	-1.364755392074585	21.892309188842773	-517.4942016601562	-7.85464334487915	-56.77595901489258	-379.0609130859375	-0.0	-0.0	-0.0	-0.0	-0.0	-0.0	102910.4453125	32190.037109375	-8266.6103515625
0.2185	-0.0	-0.0	-0.0	-1.612907886505127	22.385955810546875	-523.1656494140625	-7.540416717529297	-55.62793731689453	-374.5815124511719	-0.0	-0.0	-0.0	-0.0	-0.0	-0.0	101972.015625	31990.4375	-8163.50732421875
0.219	-0.0	-0.0	-0.0	-1.5577048063278198	22.04301643371582	-530.0955810546875	-7.4517059326171875	-54.75224685668945	-369.72308349609375	-0.0	-0.0	-0.0	-0.0	-0.0	-0.0	100589.03125	31935.990234375	-8149.5732421875
0.2195	-0.0	-0.0	-0.0	-1.8185614347457888	22.303089141845703	-535.828125	-7.540416717529297	-53.3392219543457	-366.3366394042969	-0.0	-0.0	-0.0	-0.0	-0.0	-0.0	99498.6328125	31711.56640625	-8000.91650390625
0.22	-0.0	-0.0	-0.0	-1.7085031270980835	22.447370529174805	-540.9351806640625	-6.905383110046387	-52.58506774902344	-360.5682067871094	-0.0	-0.0	-0.0	-0.0	-0.0	-0.0	98411.2265625	31239.091796875	-8025.20849609375
0.2205	-0.0	-0.0	-0.0	-1.536352515220642	22.63253593444824	-547.1279296875	-6.967231273651123	-51.55280303955078	-356.53790283203125	-0.0	-0.0	-0.0	-0.0	-0.0	-0.0	97468.0703125	31176.478515625	-7817.39453125
0.221	-0.0	-0.0	-0.0	-1.701468825340271	23.084774017333984	-553.5098266601562	-7.137844085693359	-50.241607666015625	-351.9183044433594	-0.0	-0.0	-0.0	-0.0	-0.0	-0.0	96219.5546875	30776.36328125	-7801.263671875
0.2215	-0.0	-0.0	-0.0	-2.14105224609375	22.71549415588379	-559.4622802734375	-7.206603050231934	-49.3519172668457	-347.1394958496094	-0.0	-0.0	-0.0	-0.0	-0.0	-0.0	94856.84375	30641.67578125	-7623.14404296875
0.222	-0.0	-0.0	-0.0	-2.188769817352295	23.25059700012207	-569.95849609375	-6.837235450744629	-48.26456451416016	-341.01873779296875	-0.0	-0.0	-0.0	-0.0	-0.0	-0.0	93385.453125	30168.107421875	-7613.29150390625
0.2225	-0.0	-0.0	-0.0	-2.1580257415771484	23.791683197021484	-575.8720703125	-6.659729957580566	-47.28667449951172	-334.6744689941406	-0.0	-0.0	-0.0	-0.0	-0.0	-0.0	92072.5703125	29966.30859375	-7446.515625
0.223	-0.0	-0.0	-0.0	-2.051841735839844	23.536399841308597	-583.994873046875	-6.564598083496094	-45.96832275390625	-329.25	-0.0	-0.0	-0.0	-0.0	-0.0	-0.0	90833.578125	29679.33203125	-7362.5576171875
0.2235	-0.0	-0.0	-0.0	-2.051841735839844	23.72039222717285	-592.6823120117188	-6.564598083496094	-44.59022903442383	-323.2177429199219	-0.0	-0.0	-0.0	-0.0	-0.0	-0.0	89270.1640625	29181.32421875	-7141.52392578125
0.224	-0.0	-0.0	-0.0	-2.277754545211792	24.01199150085449	-599.2041015625	-6.209754943847656	-43.48938751220703	-316.6805419921875	-0.0	-0.0	-0.0	-0.0	-0.0	-0.0	87514.546875	28792.107421875	-7063.7099609375
0.2245	-0.0	-0.0	-0.0	-2.5814919471740723	24.21292304992676	-606.9952392578125	-6.180140495300293	-41.9940299987793	-310.5123596191406	-0.0	-0.0	-0.0	-0.0	-0.0	-0.0	85649.7578125	28443.1953125	-6916.88037109375
0.225	-0.0	-0.0	-0.0	-2.718156337738037	24.35783195495605	-614.7205810546875	-5.949435234069824	-40.586708068847656	-302.4826965332031	-0.0	-0.0	-0.0	-0.0	-0.0	-0.0	84030.0859375	27810.234375	-6617.70458984375
0.2255	-0.0	-0.0	-0.0	-2.6925339698791504	24.872783660888672	-623.758544921875	-5.44148588180542	-39.038185119628906	-295.8948059082031	-0.0	-0.0	-0.0	-0.0	-0.0	-0.0	82218.9453125	27227.826171875	-6466.66552734375
0.226	-0.0	-0.0	-0.0	-2.623841524124145	25.077104568481445	-632.7114868164062	-5.233936309814453	-37.65543365478516	-288.4427795410156	-0.0	-0.0	-0.0	-0.0	-0.0	-0.0	80334.09375	26864.8359375	-6098.1142578125
0.2265	-0.0	-0.0	-0.0	-2.104189872741699	25.01397132873535	-641.1470947265625	-5.2230401039123535	-36.283939361572266	-278.6015625	-0.0	-0.0	-0.0	-0.0	-0.0	-0.0	78240.03125	26099.525390625	-5987.501953125
0.227	-0.0	-0.0	-0.0	-2.230262756347656	25.565433502197266	-649.7437744140625	-4.581827163696289	-34.60630798339844	-270.941650390625	-0.0	-0.0	-0.0	-0.0	-0.0	-0.0	76064.7265625	25503.703125	-5599.298828125
0.2275	-0.0	-0.0	-0.0	-1.9950380325317385	27.001636505126957	-659.9457397460938	-4.169406890869141	-33.110347747802734	-261.5145874023437	-0.0	-0.0	-0.0	-0.0	-0.0	-0.0	73696.1015625	24627.408203125	-5411.9580078125
0.228	-0.0	-0.0	-0.0	-1.9674267768859863	27.8460636138916	-668.0113525390625	-3.715685367584229	-31.12074089050293	-252.72573852539065	-0.0	-0.0	-0.0	-0.0	-0.0	-0.0	71249.71875	23959.44921875	-5153.0078125
0.2285	-0.0	-0.0	-0.0	-1.7888453006744385	28.826738357543945	-676.4519653320312	-3.412903070449829	-29.531347274780277	-244.18310546875	-0.0	-0.0	-0.0	-0.0	-0.0	-0.0	68507.796875	23197.13671875	-4951.4609375
0.229	-0.0	-0.0	-0.0	-1.8779336214065552	29.24378967285156	-684.4984130859375	-2.399993896484375	-28.304710388183597	-233.76644897460935	-0.0	-0.0	-0.0	-0.0	-0.0	-0.0	66024.9375	22469.98046875	-4533.46533203125
0.2295	-0.0	-0.0	-0.0	-2.14548134803772	29.9566650390625	-694.739990234375	-2.1243393421173096	-26.97522735595703	-224.1739044189453	-0.0	-0.0	-0.0	-0.0	-0.0	-0.0	63411.8515625	21747.869140625	-4203.45703125
0.23	-0.0	-0.0	-0.0	-2.183523178100586	30.444429397583008	-703.3494262695312	-1.5922342538833618	-25.9620361328125	-213.11219787597656	-0.0	-0.0	-0.0	-0.0	-0.0	-0.0	60436.35546875	20896.126953125	-3831.33837890625
0.2305	-0.0	-0.0	-0.0	-2.0434727668762207	31.73042297363281	-711.6575927734375	-0.900536298751831	-24.27063751220703	-200.77980041503903	-0.0	-0.0	-0.0	-0.0	-0.0	-0.0	57429.3984375	19682.228515625	-3491.581787109375
0.231	-0.0	-0.0	-0.0	-2.2101426124572754	32.03635025024414	-722.100341796875	-0.498700886964798	-22.6480655670166	-188.84005737304688	-0.0	-0.0	-0.0	-0.0	-0.0	-0.0	54156.1171875	18926.365234375	-3061.50341796875
0.2315	-0.0	-0.0	-0.0	-1.9199769496917725	33.450923919677734	-731.3131713867188	0.042257834225893	-21.289703369140625	-177.88449096679688	-0.0	-0.0	-0.0	-0.0	-0.0	-0.0	51140.44921875	17607.28125	-2795.2001953125
0.232	-0.0	-0.0	-0.0	-2.14105224609375	33.3774299621582	-741.3700561523438	0.7055746912956238	-19.964794158935547	-167.2598114013672	-0.0	-0.0	-0.0	-0.0	-0.0	-0.0	47887.87109375	16574.673828125	-2319.739013671875
0.2325	-0.0	-0.0	-0.0	-2.308501005172729	33.962337493896484	-752.8247680664062	1.647077560424805	-18.443492889404297	-152.5948028564453	-0.0	-0.0	-0.0	-0.0	-0.0	-0.0	44360.78125	15398.7490234375	-2016.703369140625
0.233	-0.0	-0.0	-0.0	-2.758456230163574	34.1298828125	-761.3283081054688	2.036517858505249	-16.996204376220703	-138.0366973876953	-0.0	-0.0	-0.0	-0.0	-0.0	-0.0	40212.04296875	14195.0087890625	-1662.7740478515625
0.2335	-0.0	-0.0	-0.0	-2.890713930130005	34.08720779418945	-771.7527465820312	3.02366042137146	-15.502321243286133	-123.90457916259766	-0.0	-0.0	-0.0	-0.0	-0.0	-0.0	35957.671875	12649.98046875	-1246.4239501953125
0.234	-0.0	-0.0	-0.0	-2.6333553791046143	34.07101058959961	-782.85595703125	3.7791764736175537	-13.74295139312744	-107.51045989990234	-0.0	-0.0	-0.0	-0.0	-0.0	-0.0	31457.66796875	11142.3955078125	-802.9315795898438
0.23450000000000001	-0.0	-0.0	-0.0	-2.6236941814422607	33.95868682861328	-796.4842529296875	4.346828460693359	-12.107047080993652	-91.95318603515624	-0.0	-0.0	-0.0	-0.0	-0.0	-0.0	27361.0546875	9627.1484375	-369.0269165039063
0.23500000000000001	-0.0	-0.0	-0.0	-2.3534181118011475	33.694339752197266	-808.0635986328125	5.145225524902344	-10.281153678894045	-75.68693542480469	-0.0	-0.0	-0.0	-0.0	-0.0	-0.0	22928.666015625	8090.041015625	-28.616167068481445
0.23550000000000001	-0.0	-0.0	-0.0	-2.356769323348999	33.743160247802734	-819.7537841796875	5.329092025756836	-8.576828002929688	-61.45068359375	-0.0	-0.0	-0.0	-0.0	-0.0	-0.0	18895.349609375	6709.22998046875	269.6654357910156
0.23600000000000002	-0.0	-0.0	-0.0	-2.630290508270264	33.46421432495117	-831.214599609375	5.45414400100708	-6.578403472900391	-47.59125518798828	-0.0	-0.0	-0.0	-0.0	-0.0	-0.0	15114.7587890625	5230.26123046875	683.4315185546875
0.23650000000000002	-0.0	-0.0	-0.0	-1.8627057075500488	33.38067626953125	-846.796630859375	5.680469036102295	-5.344944953918457	-36.84135818481445	-0.0	-0.0	-0.0	-0.0	-0.0	-0.0	11644.8037109375	4076.549072265625	864.9317016601562
0.23700000000000002	-0.0	-0.0	-0.0	-1.4732517004013062	32.57844161987305	-859.2969360351562	5.016445636749268	-4.5927276611328125	-25.30786895751953	-0.0	-0.0	-0.0	-0.0	-0.0	-0.0	8447.451171875	2839.646728515625	1023.4217529296876
0.23750000000000002	-0.0	-0.0	-0.0	-1.4248952865600586	32.66505813598633	-871.3242797851562	-0.0	-0.0	-0.0	-0.0	-0.0	-0.0	-0.0	-0.0	-0.0	-0.0	-0.0	-0.0
0.23800000000000002	-0.0	-0.0	-0.0	-1.068213701248169	32.35895919799805	-884.6974487304688	-0.0	-0.0	-0.0	-0.0	-0.0	-0.0	-0.0	-0.0	-0.0	-0.0	-0.0	-0.0
0.23850000000000002	-0.0	-0.0	-0.0	-1.377191424369812	31.95213508605957	-895.8452758789062	-0.0	-0.0	-0.0	-0.0	-0.0	-0.0	-0.0	-0.0	-0.0	-0.0	-0.0	-0.0
0.23900000000000002	-0.0	-0.0	-0.0	-1.070526123046875	32.31287384033203	-906.637451171875	-0.0	-0.0	-0.0	-0.0	-0.0	-0.0	-0.0	-0.0	-0.0	-0.0	-0.0	-0.0
0.23950000000000002	-0.0	-0.0	-0.0	-1.072472095489502	32.26715469360352	-916.3292236328124	-0.0	-0.0	-0.0	-0.0	-0.0	-0.0	-0.0	-0.0	-0.0	-0.0	-0.0	-0.0
0.24	-0.0	-0.0	-0.0	-1.5109935998916626	31.944881439208984	-924.2940063476562	-0.0	-0.0	-0.0	-0.0	-0.0	-0.0	-0.0	-0.0	-0.0	-0.0	-0.0	-0.0
0.2405	-0.0	-0.0	-0.0	-1.5569307804107666	31.86496925354004	-934.1676635742188	-0.0	-0.0	-0.0	-0.0	-0.0	-0.0	-0.0	-0.0	-0.0	-0.0	-0.0	-0.0
0.241	-0.0	-0.0	-0.0	-2.227104902267456	31.90868377685547	-940.8775634765624	-0.0	-0.0	-0.0	-0.0	-0.0	-0.0	-0.0	-0.0	-0.0	-0.0	-0.0	-0.0
